<mxfile host="app.diagrams.net" agent="Mozilla/5.0 (Windows NT 10.0; Win64; x64) AppleWebKit/537.36 (KHTML, like Gecko) Chrome/134.0.0.0 Safari/537.36" version="26.2.6">
  <diagram name="第 1 页" id="LzNMjVQQ89Bj5J5OkZy0">
    <mxGraphModel grid="1" page="1" gridSize="10" guides="1" tooltips="1" connect="1" arrows="1" fold="1" pageScale="1" pageWidth="827" pageHeight="1169" math="0" shadow="0">
      <root>
        <mxCell id="0" />
        <mxCell id="1" parent="0" />
        <mxCell id="AN5RHQabGNWO9rP7vd-L-53" style="edgeStyle=orthogonalEdgeStyle;rounded=0;orthogonalLoop=1;jettySize=auto;html=1;endArrow=none;startFill=0;entryX=1;entryY=0.5;entryDx=0;entryDy=0;entryPerimeter=0;" edge="1" parent="1" source="AN5RHQabGNWO9rP7vd-L-2" target="AN5RHQabGNWO9rP7vd-L-54">
          <mxGeometry relative="1" as="geometry">
            <mxPoint x="600" y="235" as="targetPoint" />
          </mxGeometry>
        </mxCell>
        <mxCell id="AN5RHQabGNWO9rP7vd-L-2" value="&lt;p style=&quot;margin:0px;margin-top:6px;text-align:center;&quot;&gt;&lt;br&gt;&lt;/p&gt;&lt;p style=&quot;text-align: center; margin: 6px 0px 0px;&quot;&gt;&lt;span style=&quot;background-color: transparent; text-align: left;&quot;&gt;&lt;b&gt;&amp;lt;&amp;lt;&lt;/b&gt;&lt;/span&gt;&lt;b&gt;Component&lt;/b&gt;&lt;span style=&quot;background-color: transparent; text-align: left;&quot;&gt;&lt;b&gt;&amp;gt;&amp;gt;&lt;/b&gt;&lt;/span&gt;&lt;/p&gt;&lt;p style=&quot;text-align: center; margin: 6px 0px 0px;&quot;&gt;&lt;span style=&quot;background-color: transparent; text-align: left;&quot;&gt;&lt;b&gt;地圖功能&lt;/b&gt;&lt;/span&gt;&lt;/p&gt;" style="align=left;overflow=fill;html=1;dropTarget=0;whiteSpace=wrap;" vertex="1" parent="1">
          <mxGeometry x="450" y="186" width="180" height="90" as="geometry" />
        </mxCell>
        <mxCell id="AN5RHQabGNWO9rP7vd-L-3" value="" style="shape=component;jettyWidth=8;jettyHeight=4;" vertex="1" parent="AN5RHQabGNWO9rP7vd-L-2">
          <mxGeometry x="1" width="20" height="20" relative="1" as="geometry">
            <mxPoint x="-24" y="4" as="offset" />
          </mxGeometry>
        </mxCell>
        <mxCell id="AN5RHQabGNWO9rP7vd-L-57" style="edgeStyle=orthogonalEdgeStyle;rounded=0;orthogonalLoop=1;jettySize=auto;html=1;endArrow=none;startFill=0;" edge="1" parent="1" source="AN5RHQabGNWO9rP7vd-L-4" target="AN5RHQabGNWO9rP7vd-L-58">
          <mxGeometry relative="1" as="geometry">
            <mxPoint x="696" y="404" as="targetPoint" />
          </mxGeometry>
        </mxCell>
        <mxCell id="AN5RHQabGNWO9rP7vd-L-4" value="&lt;p style=&quot;margin:0px;margin-top:6px;text-align:center;&quot;&gt;&lt;br&gt;&lt;/p&gt;&lt;p style=&quot;text-align: center; margin: 6px 0px 0px;&quot;&gt;&lt;span style=&quot;background-color: transparent; text-align: left;&quot;&gt;&lt;b&gt;&amp;lt;&amp;lt;&lt;/b&gt;&lt;/span&gt;&lt;b&gt;Component&lt;/b&gt;&lt;span style=&quot;background-color: transparent; text-align: left;&quot;&gt;&lt;b&gt;&amp;gt;&amp;gt;&lt;/b&gt;&lt;/span&gt;&lt;/p&gt;&lt;p style=&quot;text-align: center; margin: 6px 0px 0px;&quot;&gt;&lt;span style=&quot;background-color: transparent; text-align: left;&quot;&gt;&lt;b&gt;服務地點&lt;/b&gt;&lt;/span&gt;&lt;/p&gt;" style="align=left;overflow=fill;html=1;dropTarget=0;whiteSpace=wrap;" vertex="1" parent="1">
          <mxGeometry x="450" y="359" width="180" height="90" as="geometry" />
        </mxCell>
        <mxCell id="AN5RHQabGNWO9rP7vd-L-5" value="" style="shape=component;jettyWidth=8;jettyHeight=4;" vertex="1" parent="AN5RHQabGNWO9rP7vd-L-4">
          <mxGeometry x="1" width="20" height="20" relative="1" as="geometry">
            <mxPoint x="-24" y="4" as="offset" />
          </mxGeometry>
        </mxCell>
        <mxCell id="AN5RHQabGNWO9rP7vd-L-6" value="&lt;p style=&quot;margin:0px;margin-top:6px;text-align:center;&quot;&gt;&lt;br&gt;&lt;/p&gt;&lt;p style=&quot;text-align: center; margin: 6px 0px 0px;&quot;&gt;&lt;span style=&quot;background-color: transparent; text-align: left;&quot;&gt;&lt;b&gt;&amp;lt;&amp;lt;&lt;/b&gt;&lt;/span&gt;&lt;b&gt;Component&lt;/b&gt;&lt;span style=&quot;background-color: transparent; text-align: left;&quot;&gt;&lt;b&gt;&amp;gt;&amp;gt;&lt;/b&gt;&lt;/span&gt;&lt;/p&gt;&lt;p style=&quot;text-align: center; margin: 6px 0px 0px;&quot;&gt;&lt;span style=&quot;background-color: transparent; text-align: left;&quot;&gt;&lt;b&gt;行事曆&lt;/b&gt;&lt;/span&gt;&lt;/p&gt;" style="align=left;overflow=fill;html=1;dropTarget=0;whiteSpace=wrap;" vertex="1" parent="1">
          <mxGeometry x="445" y="479" width="180" height="90" as="geometry" />
        </mxCell>
        <mxCell id="AN5RHQabGNWO9rP7vd-L-7" value="" style="shape=component;jettyWidth=8;jettyHeight=4;" vertex="1" parent="AN5RHQabGNWO9rP7vd-L-6">
          <mxGeometry x="1" width="20" height="20" relative="1" as="geometry">
            <mxPoint x="-24" y="4" as="offset" />
          </mxGeometry>
        </mxCell>
        <mxCell id="AN5RHQabGNWO9rP7vd-L-75" style="edgeStyle=orthogonalEdgeStyle;rounded=0;orthogonalLoop=1;jettySize=auto;html=1;endArrow=none;startFill=0;" edge="1" parent="1" source="AN5RHQabGNWO9rP7vd-L-8" target="AN5RHQabGNWO9rP7vd-L-104">
          <mxGeometry relative="1" as="geometry">
            <mxPoint x="-11" y="775" as="targetPoint" />
          </mxGeometry>
        </mxCell>
        <mxCell id="AN5RHQabGNWO9rP7vd-L-8" value="&lt;p style=&quot;margin:0px;margin-top:6px;text-align:center;&quot;&gt;&lt;br&gt;&lt;/p&gt;&lt;p style=&quot;text-align: center; margin: 6px 0px 0px;&quot;&gt;&lt;span style=&quot;background-color: transparent; text-align: left;&quot;&gt;&lt;b&gt;&amp;lt;&amp;lt;&lt;/b&gt;&lt;/span&gt;&lt;b&gt;Component&lt;/b&gt;&lt;span style=&quot;background-color: transparent; text-align: left;&quot;&gt;&lt;b&gt;&amp;gt;&amp;gt;&lt;/b&gt;&lt;/span&gt;&lt;/p&gt;&lt;p style=&quot;text-align: center; margin: 6px 0px 0px;&quot;&gt;&lt;span style=&quot;background-color: transparent; text-align: left;&quot;&gt;&lt;b&gt;診所管理&lt;/b&gt;&lt;/span&gt;&lt;/p&gt;" style="align=left;overflow=fill;html=1;dropTarget=0;whiteSpace=wrap;" vertex="1" parent="1">
          <mxGeometry x="70" y="730" width="180" height="90" as="geometry" />
        </mxCell>
        <mxCell id="AN5RHQabGNWO9rP7vd-L-9" value="" style="shape=component;jettyWidth=8;jettyHeight=4;" vertex="1" parent="AN5RHQabGNWO9rP7vd-L-8">
          <mxGeometry x="1" width="20" height="20" relative="1" as="geometry">
            <mxPoint x="-24" y="4" as="offset" />
          </mxGeometry>
        </mxCell>
        <mxCell id="AN5RHQabGNWO9rP7vd-L-67" style="edgeStyle=orthogonalEdgeStyle;rounded=0;orthogonalLoop=1;jettySize=auto;html=1;endArrow=none;startFill=0;" edge="1" parent="1" source="AN5RHQabGNWO9rP7vd-L-11" target="AN5RHQabGNWO9rP7vd-L-68">
          <mxGeometry relative="1" as="geometry">
            <mxPoint x="270.0000000000001" y="176" as="targetPoint" />
          </mxGeometry>
        </mxCell>
        <mxCell id="AN5RHQabGNWO9rP7vd-L-11" value="&lt;p style=&quot;margin:0px;margin-top:6px;text-align:center;&quot;&gt;&lt;br&gt;&lt;/p&gt;&lt;p style=&quot;text-align: center; margin: 6px 0px 0px;&quot;&gt;&lt;span style=&quot;background-color: transparent; text-align: left;&quot;&gt;&lt;b&gt;&amp;lt;&amp;lt;&lt;/b&gt;&lt;/span&gt;&lt;b&gt;Component&lt;/b&gt;&lt;span style=&quot;background-color: transparent; text-align: left;&quot;&gt;&lt;b&gt;&amp;gt;&amp;gt;&lt;/b&gt;&lt;/span&gt;&lt;/p&gt;&lt;p style=&quot;text-align: center; margin: 6px 0px 0px;&quot;&gt;&lt;span style=&quot;background-color: transparent; text-align: left;&quot;&gt;&lt;b&gt;一般使用者&lt;/b&gt;&lt;/span&gt;&lt;/p&gt;" style="align=left;overflow=fill;html=1;dropTarget=0;whiteSpace=wrap;" vertex="1" parent="1">
          <mxGeometry x="70" y="186" width="180" height="90" as="geometry" />
        </mxCell>
        <mxCell id="AN5RHQabGNWO9rP7vd-L-12" value="" style="shape=component;jettyWidth=8;jettyHeight=4;" vertex="1" parent="AN5RHQabGNWO9rP7vd-L-11">
          <mxGeometry x="1" width="20" height="20" relative="1" as="geometry">
            <mxPoint x="-24" y="4" as="offset" />
          </mxGeometry>
        </mxCell>
        <mxCell id="AN5RHQabGNWO9rP7vd-L-95" style="edgeStyle=orthogonalEdgeStyle;rounded=0;orthogonalLoop=1;jettySize=auto;html=1;endArrow=none;startFill=0;" edge="1" parent="1" source="AN5RHQabGNWO9rP7vd-L-13" target="AN5RHQabGNWO9rP7vd-L-96">
          <mxGeometry relative="1" as="geometry">
            <mxPoint x="290" y="530" as="targetPoint" />
            <Array as="points">
              <mxPoint x="290" y="450" />
              <mxPoint x="290" y="450" />
            </Array>
          </mxGeometry>
        </mxCell>
        <mxCell id="AN5RHQabGNWO9rP7vd-L-13" value="&lt;p style=&quot;margin:0px;margin-top:6px;text-align:center;&quot;&gt;&lt;br&gt;&lt;/p&gt;&lt;p style=&quot;text-align: center; margin: 6px 0px 0px;&quot;&gt;&lt;span style=&quot;background-color: transparent; text-align: left;&quot;&gt;&lt;b&gt;&amp;lt;&amp;lt;&lt;/b&gt;&lt;/span&gt;&lt;b&gt;Component&lt;/b&gt;&lt;span style=&quot;background-color: transparent; text-align: left;&quot;&gt;&lt;b&gt;&amp;gt;&amp;gt;&lt;/b&gt;&lt;/span&gt;&lt;/p&gt;&lt;p style=&quot;text-align: center; margin: 6px 0px 0px;&quot;&gt;&lt;span style=&quot;background-color: transparent; text-align: left;&quot;&gt;&lt;b&gt;寵物主人&lt;/b&gt;&lt;/span&gt;&lt;/p&gt;" style="align=left;overflow=fill;html=1;dropTarget=0;whiteSpace=wrap;" vertex="1" parent="1">
          <mxGeometry x="70" y="430" width="180" height="90" as="geometry" />
        </mxCell>
        <mxCell id="AN5RHQabGNWO9rP7vd-L-14" value="" style="shape=component;jettyWidth=8;jettyHeight=4;" vertex="1" parent="AN5RHQabGNWO9rP7vd-L-13">
          <mxGeometry x="1" width="20" height="20" relative="1" as="geometry">
            <mxPoint x="-24" y="4" as="offset" />
          </mxGeometry>
        </mxCell>
        <mxCell id="AN5RHQabGNWO9rP7vd-L-39" style="edgeStyle=orthogonalEdgeStyle;rounded=0;orthogonalLoop=1;jettySize=auto;html=1;endArrow=none;startFill=0;entryX=0;entryY=0.5;entryDx=0;entryDy=0;entryPerimeter=0;" edge="1" parent="1" source="AN5RHQabGNWO9rP7vd-L-15" target="AN5RHQabGNWO9rP7vd-L-42">
          <mxGeometry relative="1" as="geometry">
            <mxPoint x="344" y="585" as="targetPoint" />
            <Array as="points">
              <mxPoint x="340" y="585" />
              <mxPoint x="340" y="485" />
            </Array>
          </mxGeometry>
        </mxCell>
        <mxCell id="AN5RHQabGNWO9rP7vd-L-101" style="edgeStyle=orthogonalEdgeStyle;rounded=0;orthogonalLoop=1;jettySize=auto;html=1;endArrow=none;startFill=0;" edge="1" parent="1" source="AN5RHQabGNWO9rP7vd-L-15" target="AN5RHQabGNWO9rP7vd-L-102">
          <mxGeometry relative="1" as="geometry">
            <mxPoint x="160" y="680" as="targetPoint" />
          </mxGeometry>
        </mxCell>
        <mxCell id="AN5RHQabGNWO9rP7vd-L-15" value="&lt;p style=&quot;margin:0px;margin-top:6px;text-align:center;&quot;&gt;&lt;br&gt;&lt;/p&gt;&lt;p style=&quot;text-align: center; margin: 6px 0px 0px;&quot;&gt;&lt;span style=&quot;background-color: transparent; text-align: left;&quot;&gt;&lt;b&gt;&amp;lt;&amp;lt;&lt;/b&gt;&lt;/span&gt;&lt;b&gt;Component&lt;/b&gt;&lt;span style=&quot;background-color: transparent; text-align: left;&quot;&gt;&lt;b&gt;&amp;gt;&amp;gt;&lt;/b&gt;&lt;/span&gt;&lt;/p&gt;&lt;p style=&quot;text-align: center; margin: 6px 0px 0px;&quot;&gt;&lt;span style=&quot;background-color: transparent; text-align: left;&quot;&gt;&lt;b&gt;獸醫&lt;/b&gt;&lt;/span&gt;&lt;/p&gt;" style="align=left;overflow=fill;html=1;dropTarget=0;whiteSpace=wrap;" vertex="1" parent="1">
          <mxGeometry x="70" y="540" width="180" height="90" as="geometry" />
        </mxCell>
        <mxCell id="AN5RHQabGNWO9rP7vd-L-16" value="" style="shape=component;jettyWidth=8;jettyHeight=4;" vertex="1" parent="AN5RHQabGNWO9rP7vd-L-15">
          <mxGeometry x="1" width="20" height="20" relative="1" as="geometry">
            <mxPoint x="-24" y="4" as="offset" />
          </mxGeometry>
        </mxCell>
        <mxCell id="AN5RHQabGNWO9rP7vd-L-80" style="edgeStyle=orthogonalEdgeStyle;rounded=0;orthogonalLoop=1;jettySize=auto;html=1;endArrow=none;startFill=0;" edge="1" parent="1" source="AN5RHQabGNWO9rP7vd-L-17" target="AN5RHQabGNWO9rP7vd-L-81">
          <mxGeometry relative="1" as="geometry">
            <mxPoint x="383" y="770" as="targetPoint" />
          </mxGeometry>
        </mxCell>
        <mxCell id="AN5RHQabGNWO9rP7vd-L-17" value="&lt;p style=&quot;margin:0px;margin-top:6px;text-align:center;&quot;&gt;&lt;br&gt;&lt;/p&gt;&lt;p style=&quot;text-align: center; margin: 6px 0px 0px;&quot;&gt;&lt;span style=&quot;background-color: transparent; text-align: left;&quot;&gt;&lt;b&gt;&amp;lt;&amp;lt;&lt;/b&gt;&lt;/span&gt;&lt;b&gt;Component&lt;/b&gt;&lt;span style=&quot;background-color: transparent; text-align: left;&quot;&gt;&lt;b&gt;&amp;gt;&amp;gt;&lt;/b&gt;&lt;/span&gt;&lt;/p&gt;&lt;p style=&quot;text-align: center; margin: 6px 0px 0px;&quot;&gt;&lt;span style=&quot;background-color: transparent; text-align: left;&quot;&gt;&lt;b&gt;健康管理&lt;/b&gt;&lt;/span&gt;&lt;/p&gt;" style="align=left;overflow=fill;html=1;dropTarget=0;whiteSpace=wrap;" vertex="1" parent="1">
          <mxGeometry x="440" y="640" width="180" height="90" as="geometry" />
        </mxCell>
        <mxCell id="AN5RHQabGNWO9rP7vd-L-18" value="" style="shape=component;jettyWidth=8;jettyHeight=4;" vertex="1" parent="AN5RHQabGNWO9rP7vd-L-17">
          <mxGeometry x="1" width="20" height="20" relative="1" as="geometry">
            <mxPoint x="-24" y="4" as="offset" />
          </mxGeometry>
        </mxCell>
        <mxCell id="AN5RHQabGNWO9rP7vd-L-19" value="&lt;p style=&quot;margin:0px;margin-top:6px;text-align:center;&quot;&gt;&lt;br&gt;&lt;/p&gt;&lt;p style=&quot;text-align: center; margin: 6px 0px 0px;&quot;&gt;&lt;span style=&quot;background-color: transparent; text-align: left;&quot;&gt;&lt;b&gt;&amp;lt;&amp;lt;&lt;/b&gt;&lt;/span&gt;&lt;b&gt;Component&lt;/b&gt;&lt;span style=&quot;background-color: transparent; text-align: left;&quot;&gt;&lt;b&gt;&amp;gt;&amp;gt;&lt;/b&gt;&lt;/span&gt;&lt;/p&gt;&lt;p style=&quot;text-align: center; margin: 6px 0px 0px;&quot;&gt;&lt;span style=&quot;background-color: transparent; text-align: left;&quot;&gt;&lt;b&gt;檔案中心&lt;/b&gt;&lt;/span&gt;&lt;/p&gt;" style="align=left;overflow=fill;html=1;dropTarget=0;whiteSpace=wrap;" vertex="1" parent="1">
          <mxGeometry x="440" y="830" width="180" height="90" as="geometry" />
        </mxCell>
        <mxCell id="AN5RHQabGNWO9rP7vd-L-20" value="" style="shape=component;jettyWidth=8;jettyHeight=4;" vertex="1" parent="AN5RHQabGNWO9rP7vd-L-19">
          <mxGeometry x="1" width="20" height="20" relative="1" as="geometry">
            <mxPoint x="-24" y="4" as="offset" />
          </mxGeometry>
        </mxCell>
        <mxCell id="AN5RHQabGNWO9rP7vd-L-32" style="edgeStyle=orthogonalEdgeStyle;rounded=0;orthogonalLoop=1;jettySize=auto;html=1;entryX=1;entryY=0.5;entryDx=0;entryDy=0;entryPerimeter=0;endArrow=none;startFill=0;" edge="1" parent="1" source="AN5RHQabGNWO9rP7vd-L-19" target="AN5RHQabGNWO9rP7vd-L-28">
          <mxGeometry relative="1" as="geometry" />
        </mxCell>
        <mxCell id="AN5RHQabGNWO9rP7vd-L-40" style="edgeStyle=orthogonalEdgeStyle;rounded=0;orthogonalLoop=1;jettySize=auto;html=1;endArrow=none;startFill=0;exitX=-0.003;exitY=0.075;exitDx=0;exitDy=0;exitPerimeter=0;" edge="1" parent="1" source="AN5RHQabGNWO9rP7vd-L-6" target="AN5RHQabGNWO9rP7vd-L-42">
          <mxGeometry relative="1" as="geometry">
            <mxPoint x="554" y="430" as="sourcePoint" />
          </mxGeometry>
        </mxCell>
        <mxCell id="AN5RHQabGNWO9rP7vd-L-41" style="edgeStyle=orthogonalEdgeStyle;rounded=0;orthogonalLoop=1;jettySize=auto;html=1;endArrow=none;startFill=0;exitX=1.02;exitY=0.611;exitDx=0;exitDy=0;exitPerimeter=0;" edge="1" parent="1" source="AN5RHQabGNWO9rP7vd-L-13" target="AN5RHQabGNWO9rP7vd-L-42">
          <mxGeometry relative="1" as="geometry">
            <mxPoint x="274" y="430" as="sourcePoint" />
          </mxGeometry>
        </mxCell>
        <mxCell id="AN5RHQabGNWO9rP7vd-L-58" value="" style="shape=providedRequiredInterface;html=1;verticalLabelPosition=bottom;sketch=0;" vertex="1" parent="1">
          <mxGeometry x="686" y="394" width="20" height="20" as="geometry" />
        </mxCell>
        <mxCell id="AN5RHQabGNWO9rP7vd-L-60" value="地點資料" style="text;align=center;fontStyle=1;verticalAlign=middle;spacingLeft=3;spacingRight=3;strokeColor=none;rotatable=0;points=[[0,0.5],[1,0.5]];portConstraint=eastwest;html=1;" vertex="1" parent="1">
          <mxGeometry x="706" y="391" width="80" height="26" as="geometry" />
        </mxCell>
        <mxCell id="AN5RHQabGNWO9rP7vd-L-63" style="edgeStyle=orthogonalEdgeStyle;rounded=0;orthogonalLoop=1;jettySize=auto;html=1;endArrow=none;startFill=0;" edge="1" parent="1" source="AN5RHQabGNWO9rP7vd-L-62" target="AN5RHQabGNWO9rP7vd-L-4">
          <mxGeometry relative="1" as="geometry" />
        </mxCell>
        <mxCell id="AN5RHQabGNWO9rP7vd-L-64" style="edgeStyle=orthogonalEdgeStyle;rounded=0;orthogonalLoop=1;jettySize=auto;html=1;endArrow=none;startFill=0;" edge="1" parent="1" source="AN5RHQabGNWO9rP7vd-L-62" target="AN5RHQabGNWO9rP7vd-L-2">
          <mxGeometry relative="1" as="geometry" />
        </mxCell>
        <mxCell id="AN5RHQabGNWO9rP7vd-L-62" value="" style="shape=providedRequiredInterface;html=1;verticalLabelPosition=bottom;sketch=0;rotation=90;" vertex="1" parent="1">
          <mxGeometry x="530" y="313" width="20" height="20" as="geometry" />
        </mxCell>
        <mxCell id="AN5RHQabGNWO9rP7vd-L-65" value="" style="group" connectable="0" vertex="1" parent="1">
          <mxGeometry x="706" y="218" width="70" height="26" as="geometry" />
        </mxCell>
        <mxCell id="AN5RHQabGNWO9rP7vd-L-54" value="" style="shape=requiredInterface;html=1;verticalLabelPosition=bottom;sketch=0;rotation=-180;" vertex="1" parent="AN5RHQabGNWO9rP7vd-L-65">
          <mxGeometry y="3" width="10" height="20" as="geometry" />
        </mxCell>
        <mxCell id="AN5RHQabGNWO9rP7vd-L-55" value="地點搜尋" style="text;align=center;fontStyle=1;verticalAlign=middle;spacingLeft=3;spacingRight=3;strokeColor=none;rotatable=0;points=[[0,0.5],[1,0.5]];portConstraint=eastwest;html=1;" vertex="1" parent="AN5RHQabGNWO9rP7vd-L-65">
          <mxGeometry x="10" width="60" height="26" as="geometry" />
        </mxCell>
        <mxCell id="AN5RHQabGNWO9rP7vd-L-68" value="" style="shape=providedRequiredInterface;html=1;verticalLabelPosition=bottom;sketch=0;" vertex="1" parent="1">
          <mxGeometry x="308.0000000000001" y="221" width="20" height="20" as="geometry" />
        </mxCell>
        <mxCell id="AN5RHQabGNWO9rP7vd-L-70" style="edgeStyle=orthogonalEdgeStyle;rounded=0;orthogonalLoop=1;jettySize=auto;html=1;entryX=-0.022;entryY=0.511;entryDx=0;entryDy=0;entryPerimeter=0;endArrow=none;startFill=0;" edge="1" parent="1" source="AN5RHQabGNWO9rP7vd-L-68" target="AN5RHQabGNWO9rP7vd-L-2">
          <mxGeometry relative="1" as="geometry" />
        </mxCell>
        <mxCell id="AN5RHQabGNWO9rP7vd-L-82" style="edgeStyle=orthogonalEdgeStyle;rounded=0;orthogonalLoop=1;jettySize=auto;html=1;endArrow=none;startFill=0;" edge="1" parent="1" source="AN5RHQabGNWO9rP7vd-L-81" target="AN5RHQabGNWO9rP7vd-L-19">
          <mxGeometry relative="1" as="geometry" />
        </mxCell>
        <mxCell id="AN5RHQabGNWO9rP7vd-L-85" value="" style="group" connectable="0" vertex="1" parent="1">
          <mxGeometry x="330" y="865" width="80" height="46" as="geometry" />
        </mxCell>
        <mxCell id="AN5RHQabGNWO9rP7vd-L-27" value="寵物資料" style="text;align=center;fontStyle=1;verticalAlign=middle;spacingLeft=3;spacingRight=3;strokeColor=none;rotatable=0;points=[[0,0.5],[1,0.5]];portConstraint=eastwest;html=1;" vertex="1" parent="AN5RHQabGNWO9rP7vd-L-85">
          <mxGeometry y="20" width="80" height="26" as="geometry" />
        </mxCell>
        <mxCell id="AN5RHQabGNWO9rP7vd-L-28" value="" style="shape=providedRequiredInterface;html=1;verticalLabelPosition=bottom;sketch=0;" vertex="1" parent="AN5RHQabGNWO9rP7vd-L-85">
          <mxGeometry x="30" width="20" height="20" as="geometry" />
        </mxCell>
        <mxCell id="AN5RHQabGNWO9rP7vd-L-89" value="" style="group" connectable="0" vertex="1" parent="1">
          <mxGeometry x="520" y="770" width="87" height="26" as="geometry" />
        </mxCell>
        <mxCell id="AN5RHQabGNWO9rP7vd-L-81" value="" style="shape=providedRequiredInterface;html=1;verticalLabelPosition=bottom;sketch=0;rotation=90;" vertex="1" parent="AN5RHQabGNWO9rP7vd-L-89">
          <mxGeometry y="3" width="20" height="20" as="geometry" />
        </mxCell>
        <mxCell id="AN5RHQabGNWO9rP7vd-L-87" value="健康紀錄" style="text;align=center;fontStyle=1;verticalAlign=middle;spacingLeft=3;spacingRight=3;strokeColor=none;rotatable=0;points=[[0,0.5],[1,0.5]];portConstraint=eastwest;html=1;" vertex="1" parent="AN5RHQabGNWO9rP7vd-L-89">
          <mxGeometry x="7" width="80" height="26" as="geometry" />
        </mxCell>
        <mxCell id="AN5RHQabGNWO9rP7vd-L-90" value="" style="group" connectable="0" vertex="1" parent="1">
          <mxGeometry y="750" width="80" height="35" as="geometry" />
        </mxCell>
        <mxCell id="AN5RHQabGNWO9rP7vd-L-104" value="" style="strokeWidth=1;html=1;shape=mxgraph.flowchart.start_2;whiteSpace=wrap;" vertex="1" parent="AN5RHQabGNWO9rP7vd-L-90">
          <mxGeometry x="43.282442748091604" y="22.065217391304348" width="7.480916030534351" height="10.652173913043478" as="geometry" />
        </mxCell>
        <mxCell id="AN5RHQabGNWO9rP7vd-L-88" value="病患資料" style="text;align=center;fontStyle=1;verticalAlign=middle;spacingLeft=3;spacingRight=3;strokeColor=none;rotatable=0;points=[[0,0.5],[1,0.5]];portConstraint=eastwest;html=1;" vertex="1" parent="AN5RHQabGNWO9rP7vd-L-90">
          <mxGeometry y="-6" width="80" height="26" as="geometry" />
        </mxCell>
        <mxCell id="AN5RHQabGNWO9rP7vd-L-93" value="" style="group" connectable="0" vertex="1" parent="1">
          <mxGeometry x="328" y="449" width="80" height="46" as="geometry" />
        </mxCell>
        <mxCell id="AN5RHQabGNWO9rP7vd-L-42" value="" style="shape=providedRequiredInterface;html=1;verticalLabelPosition=bottom;sketch=0;" vertex="1" parent="AN5RHQabGNWO9rP7vd-L-93">
          <mxGeometry x="30" y="26" width="20" height="20" as="geometry" />
        </mxCell>
        <mxCell id="AN5RHQabGNWO9rP7vd-L-92" value="行程管理" style="text;align=center;fontStyle=1;verticalAlign=middle;spacingLeft=3;spacingRight=3;strokeColor=none;rotatable=0;points=[[0,0.5],[1,0.5]];portConstraint=eastwest;html=1;" vertex="1" parent="AN5RHQabGNWO9rP7vd-L-93">
          <mxGeometry width="80" height="26" as="geometry" />
        </mxCell>
        <mxCell id="AN5RHQabGNWO9rP7vd-L-110" style="edgeStyle=orthogonalEdgeStyle;rounded=0;orthogonalLoop=1;jettySize=auto;html=1;endArrow=none;startFill=0;" edge="1" parent="1" source="AN5RHQabGNWO9rP7vd-L-96" target="AN5RHQabGNWO9rP7vd-L-17">
          <mxGeometry relative="1" as="geometry" />
        </mxCell>
        <mxCell id="AN5RHQabGNWO9rP7vd-L-96" value="" style="shape=providedRequiredInterface;html=1;verticalLabelPosition=bottom;sketch=0;" vertex="1" parent="1">
          <mxGeometry x="304" y="675" width="20" height="20" as="geometry" />
        </mxCell>
        <mxCell id="AN5RHQabGNWO9rP7vd-L-103" style="edgeStyle=orthogonalEdgeStyle;rounded=0;orthogonalLoop=1;jettySize=auto;html=1;endArrow=none;startFill=0;" edge="1" parent="1" source="AN5RHQabGNWO9rP7vd-L-102" target="AN5RHQabGNWO9rP7vd-L-8">
          <mxGeometry relative="1" as="geometry" />
        </mxCell>
        <mxCell id="AN5RHQabGNWO9rP7vd-L-102" value="" style="shape=providedRequiredInterface;html=1;verticalLabelPosition=bottom;sketch=0;rotation=90;" vertex="1" parent="1">
          <mxGeometry x="150" y="670" width="20" height="20" as="geometry" />
        </mxCell>
        <mxCell id="AN5RHQabGNWO9rP7vd-L-107" value="位置數據" style="text;align=center;fontStyle=1;verticalAlign=middle;spacingLeft=3;spacingRight=3;strokeColor=none;rotatable=0;points=[[0,0.5],[1,0.5]];portConstraint=eastwest;html=1;" vertex="1" parent="1">
          <mxGeometry x="540" y="307" width="80" height="26" as="geometry" />
        </mxCell>
        <mxCell id="AN5RHQabGNWO9rP7vd-L-109" value="查詢" style="text;align=center;fontStyle=1;verticalAlign=middle;spacingLeft=3;spacingRight=3;strokeColor=none;rotatable=0;points=[[0,0.5],[1,0.5]];portConstraint=eastwest;html=1;" vertex="1" parent="1">
          <mxGeometry x="278" y="195" width="80" height="26" as="geometry" />
        </mxCell>
        <mxCell id="AN5RHQabGNWO9rP7vd-L-111" value="病患管理" style="text;align=center;fontStyle=1;verticalAlign=middle;spacingLeft=3;spacingRight=3;strokeColor=none;rotatable=0;points=[[0,0.5],[1,0.5]];portConstraint=eastwest;html=1;" vertex="1" parent="1">
          <mxGeometry x="160" y="664" width="80" height="26" as="geometry" />
        </mxCell>
        <mxCell id="AN5RHQabGNWO9rP7vd-L-112" value="健康查詢" style="text;align=center;fontStyle=1;verticalAlign=middle;spacingLeft=3;spacingRight=3;strokeColor=none;rotatable=0;points=[[0,0.5],[1,0.5]];portConstraint=eastwest;html=1;" vertex="1" parent="1">
          <mxGeometry x="304" y="649" width="80" height="26" as="geometry" />
        </mxCell>
        <mxCell id="AN5RHQabGNWO9rP7vd-L-117" style="edgeStyle=orthogonalEdgeStyle;rounded=0;orthogonalLoop=1;jettySize=auto;html=1;entryX=0.6;entryY=0.95;entryDx=0;entryDy=0;entryPerimeter=0;endArrow=none;startFill=0;" edge="1" parent="1" source="AN5RHQabGNWO9rP7vd-L-13" target="AN5RHQabGNWO9rP7vd-L-68">
          <mxGeometry relative="1" as="geometry">
            <Array as="points">
              <mxPoint x="230" y="360" />
              <mxPoint x="320" y="360" />
            </Array>
          </mxGeometry>
        </mxCell>
      </root>
    </mxGraphModel>
  </diagram>
</mxfile>
